<?xml version="1.0" standalone="no"?>
<!DOCTYPE svg PUBLIC "-//W3C//DTD SVG 20010904//EN"
 "http://www.w3.org/TR/2001/REC-SVG-20010904/DTD/svg10.dtd">
<svg version="1.0" xmlns="http://www.w3.org/2000/svg"
 width="591.000000pt" height="236.000000pt" viewBox="0 0 591.000000 236.000000"
 preserveAspectRatio="xMidYMid meet">
<metadata>
Created by potrace 1.13, written by Peter Selinger 2001-2015
</metadata>
<g transform="translate(0.000000,236.000000) scale(0.100000,-0.100000)"
fill="#000000" stroke="none">
<path d="M907 2292 c-2 -4 -87 -449 -188 -989 -101 -541 -186 -983 -189 -983
-3 0 -25 60 -49 133 -24 72 -48 138 -53 145 -8 9 -54 12 -169 12 -133 0 -159
-2 -159 -15 0 -12 26 -15 151 -17 l151 -3 57 -176 c32 -97 61 -184 64 -192 10
-25 37 -9 37 22 0 53 355 1912 362 1894 4 -10 87 -454 184 -988 98 -533 180
-973 184 -977 19 -23 51 33 111 191 35 94 66 171 69 171 3 -1 43 -87 90 -193
66 -148 90 -193 105 -195 17 -2 34 30 111 205 l92 208 1951 3 c1725 2 1951 4
1951 17 0 13 -224 15 -1942 15 -1069 0 -1952 3 -1963 5 -18 5 -30 -19 -106
-191 -47 -107 -90 -195 -95 -194 -5 0 -47 87 -94 193 -80 183 -96 211 -111
202 -3 -3 -37 -86 -75 -186 -55 -147 -70 -177 -76 -158 -11 37 -368 1987 -368
2013 0 22 -25 43 -33 28z"/>
<path d="M4310 1748 c-19 -6 -195 -12 -390 -15 -220 -2 -365 -8 -383 -15 -55
-21 -50 -92 8 -122 22 -12 46 -34 54 -51 24 -50 36 -301 24 -500 -11 -191 -17
-210 -78 -246 -54 -32 -59 -85 -9 -107 17 -8 136 -12 392 -12 204 0 395 -5
431 -10 82 -14 99 -3 145 92 65 136 66 246 4 276 -40 19 -77 -2 -109 -61 -60
-111 -120 -142 -276 -142 -93 0 -104 2 -125 23 -21 20 -23 34 -26 136 -3 106
-2 116 18 136 18 18 29 21 58 15 45 -7 69 -34 78 -83 10 -56 22 -72 53 -72 60
0 91 63 98 205 9 167 -25 265 -91 265 -35 0 -54 -23 -62 -77 -4 -29 -16 -56
-31 -71 -21 -21 -31 -24 -70 -19 -24 2 -49 9 -54 14 -14 14 -15 214 -1 240 15
27 62 38 153 36 121 -2 157 -20 236 -116 29 -36 75 -36 110 -1 24 24 25 30 21
102 -5 79 -22 127 -61 170 -22 24 -57 27 -117 10z"/>
<path d="M2233 1740 c-87 -18 -126 -51 -121 -102 2 -25 12 -38 46 -61 23 -16
48 -38 55 -50 15 -28 15 -426 -1 -570 -12 -109 -28 -143 -73 -159 -30 -10 -46
-44 -35 -73 18 -49 145 -75 274 -57 89 12 126 35 130 80 3 27 -2 34 -37 57
-51 32 -56 50 -56 200 0 190 32 213 94 68 19 -43 65 -142 102 -220 90 -188
113 -196 177 -55 16 37 53 120 82 184 29 65 63 129 77 144 22 24 26 25 40 12
20 -21 27 -116 15 -213 -10 -74 -13 -82 -47 -111 -31 -25 -36 -36 -33 -64 2
-21 12 -39 28 -51 64 -47 360 -51 449 -7 41 20 46 27 49 60 3 31 -2 40 -31 62
-19 15 -40 39 -46 54 -24 61 -29 537 -6 642 4 18 24 50 46 71 67 66 48 127
-48 155 -72 21 -242 16 -289 -9 -40 -21 -76 -78 -162 -257 -39 -80 -80 -154
-92 -165 -21 -19 -21 -19 -55 16 -20 20 -71 106 -122 208 -58 114 -98 181
-116 195 -24 18 -44 21 -140 23 -62 1 -131 -2 -154 -7z"/>
<path d="M4655 1724 c-36 -19 -45 -31 -45 -65 0 -27 17 -46 62 -68 48 -24 51
-46 44 -359 -9 -368 -15 -394 -91 -419 -27 -9 -30 -14 -30 -53 0 -35 5 -47 27
-63 27 -20 41 -21 385 -21 314 0 365 2 418 18 185 55 307 184 351 373 22 93
14 275 -15 357 -57 162 -171 260 -348 300 -104 23 -713 24 -758 0z m597 -168
c76 -36 124 -138 137 -290 23 -277 -55 -436 -214 -436 -35 0 -52 6 -70 25
l-25 24 0 331 c0 323 0 330 21 351 17 17 30 20 68 17 25 -3 63 -13 83 -22z"/>
<path d="M1701 1714 c-136 -36 -190 -117 -123 -184 38 -37 88 -46 184 -32 84
12 168 49 192 84 19 26 21 71 5 100 -25 46 -147 62 -258 32z"/>
<path d="M1783 1419 c-51 -11 -118 -28 -148 -40 -89 -33 -129 -102 -77 -134 9
-5 29 -22 44 -37 31 -29 35 -56 29 -218 -3 -109 -14 -142 -57 -175 -30 -23
-35 -32 -32 -63 2 -28 10 -40 34 -54 74 -43 340 -48 430 -8 69 30 82 91 27
127 -48 32 -53 62 -53 333 0 154 -4 259 -10 271 -14 25 -63 24 -187 -2z"/>
</g>
</svg>
